<svg width="100" height="100" viewBox="0 0 100 100" fill="none" xmlns="http://www.w3.org/2000/svg">
<g clip-path="url(#clip0_16_1306)">
<rect width="100" height="100" rx="16" fill="url(#paint0_linear_16_1306)"/>
<path d="M13.6719 100H86.3281C93.8789 100 100 93.8789 100 86.3281V13.6719C100 6.12111 93.8789 0 86.3281 0H13.6719C6.12111 0 0 6.12111 0 13.6719V86.3281C0 93.8789 6.12111 100 13.6719 100Z" fill="url(#paint1_linear_16_1306)"/>
<path fill-rule="evenodd" clip-rule="evenodd" d="M24 24L28.9668 77.8098L50.4911 83.6056L72.015 77.8098L76.9826 24H24Z" fill="#FAFAFA"/>
<path fill-rule="evenodd" clip-rule="evenodd" d="M50.4907 28.3586V78.9833L50.5393 78.9964L67.9579 74.3061L71.9782 28.3586H50.4907Z" fill="#FAFAFA"/>
<path d="M33.6577 34.8626L34.621 41.4253L51.3587 41.3048L35.2231 48.1083L35.6446 54.6107H58.5234L57.9815 63.1602L50.6362 65.3878L43.1705 63.3408L42.749 58.2231H36.1864L37.0293 68.2778L50.4556 72.1913L64.1227 68.3982L65.8085 48.1083H50.3352L66.4106 41.3048L66.8923 34.8024L33.6577 34.8626Z" fill="#379AD6"/>
</g>
<defs>
<linearGradient id="paint0_linear_16_1306" x1="50" y1="0" x2="50" y2="100" gradientUnits="userSpaceOnUse">
<stop stop-color="#59B8F1"/>
<stop offset="1" stop-color="#D6A937"/>
</linearGradient>
<linearGradient id="paint1_linear_16_1306" x1="50" y1="100" x2="50" y2="0" gradientUnits="userSpaceOnUse">
<stop stop-color="#59B8F1"/>
<stop offset="1" stop-color="#59B8F1"/>
</linearGradient>
<clipPath id="clip0_16_1306">
<rect width="100" height="100" rx="16" fill="white"/>
</clipPath>
</defs>
</svg>
