<svg width="100" height="100" viewBox="0 0 100 100" fill="none" xmlns="http://www.w3.org/2000/svg">
<path d="M85.3711 42.222L78.5956 32.8522C78.4195 32.5321 78.3317 32.2114 78.2439 31.8109C76.9243 18.1161 64.5174 7.78552 49.4706 7.78552C48.4149 7.78552 47.447 7.8654 46.4791 7.94584C42.9597 3.94162 37.5038 1.29883 31.4322 1.29883C20.8733 1.29883 12.25 9.14697 12.25 18.7573C12.25 24.7636 15.5938 30.0493 20.6091 33.1725C20.6091 33.4926 20.5213 33.7333 20.5213 34.0534C20.5213 42.4625 24.833 50.8712 32.048 56.4771C32.2242 56.6374 32.5759 56.9575 32.5759 57.3581V71.3729C32.5759 73.5353 34.3356 75.2971 36.7115 75.457L59.7653 77.2988H60.117C61.2611 77.2988 62.3168 76.8983 63.1971 76.1777C64.165 75.3766 64.6928 74.2555 64.6928 73.1343V64.2455H71.82C75.5157 64.2455 78.5072 61.5228 78.5072 58.1592L78.5078 49.5101H81.1477C83.0836 49.5101 84.7556 48.5492 85.7235 47.0276C86.5153 45.5059 86.4269 43.6636 85.3712 42.2223L85.3711 42.222ZM16.5616 18.7573C16.5616 11.3097 23.2489 5.22284 31.4324 5.22284C39.6153 5.22284 46.3032 11.3091 46.3032 18.7573C46.3032 26.2048 39.6159 32.2917 31.4324 32.2917C23.2495 32.2917 16.5616 26.2054 16.5616 18.7573V18.7573ZM81.6755 45.1852C81.5877 45.3455 81.4116 45.5857 80.9715 45.5857H77.012C75.34 45.5857 73.932 46.8672 73.932 48.3889V58.2392C73.932 59.3604 72.8763 60.3213 71.6444 60.3213H63.5491C61.6133 60.3213 60.1175 61.7625 60.1175 63.4446L59.9413 73.4551L36.8875 71.3731V57.4382C36.8875 55.9165 36.1835 54.4752 34.8638 53.5139C29.0562 48.9488 25.3607 42.0621 25.0089 35.2547C27.0326 35.8954 29.1445 36.2959 31.4321 36.2959C41.991 36.2959 50.6143 28.4478 50.6143 18.8375C50.6143 16.355 49.9981 14.0321 49.0308 11.8703H49.4709C62.318 11.8703 72.7887 20.5994 73.9326 32.2118C74.0203 33.1726 74.2843 34.0536 74.9005 35.015L81.7639 44.4647C81.9394 44.7049 81.8516 45.0256 81.6755 45.1853L81.6755 45.1852Z" fill="url(#paint0_linear_16_1357)"/>
<path d="M22.9154 21.1721C23.1979 21.1721 23.4104 21.0999 23.693 21.0271L28.3584 18.7809C28.9945 18.4913 29.348 17.8388 29.348 17.1145V9.43382C29.348 8.4194 28.5704 7.62231 27.5808 7.62231C26.5912 7.62231 25.8137 8.4194 25.8137 9.43382V15.955L22.2088 17.6942C21.3607 18.1288 20.9367 19.2161 21.3607 20.0854C21.6432 20.7374 22.2793 21.1721 22.9153 21.1721L22.9154 21.1721Z" fill="url(#paint1_linear_16_1357)"/>
<defs>
<linearGradient id="paint0_linear_16_1357" x1="49.25" y1="1.29883" x2="49.25" y2="77.2988" gradientUnits="userSpaceOnUse">
<stop stop-color="#C2271D"/>
<stop offset="1" stop-color="#DD4036"/>
</linearGradient>
<linearGradient id="paint1_linear_16_1357" x1="25.2712" y1="7.62231" x2="25.2712" y2="21.1721" gradientUnits="userSpaceOnUse">
<stop stop-color="#C2271D"/>
<stop offset="1" stop-color="#DD4036"/>
</linearGradient>
</defs>
</svg>
