<svg width="32" height="32" viewBox="0 0 32 32" fill="none" xmlns="http://www.w3.org/2000/svg">
<g clip-path="url(#clip0_22_1374)">
<path d="M16.68 4.28C19.5387 4.28 22.0027 5.18667 24.072 7L21.416 9.784C20.6267 9.18667 19.8907 8.76 19.208 8.504C18.5467 8.22667 17.7787 8.088 16.904 8.088C15.2613 8.088 13.9493 8.73867 12.968 10.04C11.9867 11.32 11.496 13.272 11.496 15.896C11.496 18.7333 11.8693 20.7493 12.616 21.944C13.3627 23.1173 14.5253 23.704 16.104 23.704C17.2133 23.704 18.216 23.4587 19.112 22.968V17.944H16.232L15.72 14.232H24.2V25.208C23.048 25.9547 21.7787 26.5307 20.392 26.936C19.0053 27.3413 17.6187 27.544 16.232 27.544C12.8613 27.544 10.3227 26.5627 8.616 24.6C6.90933 22.616 6.056 19.7147 6.056 15.896C6.056 13.464 6.51467 11.3733 7.432 9.624C8.37067 7.87467 9.64 6.552 11.24 5.656C12.8613 4.73867 14.6747 4.28 16.68 4.28Z" fill="black"/>
<circle cx="27.5" cy="25.5" r="2.5" fill="#C2271D"/>
</g>
<defs>
<clipPath id="clip0_22_1374">
<rect width="32" height="32" fill="white"/>
</clipPath>
</defs>
</svg>
