<svg width="100" height="100" viewBox="0 0 100 100" fill="none" xmlns="http://www.w3.org/2000/svg">
<rect width="100" height="100" rx="16" fill="url(#paint0_linear_16_1333)"/>
<path d="M65 26C59.4824 26 55 30.48 55 36C55 39.689 57.0215 42.8798 60 44.6157V46C60 46 60 56 50 56C45.8545 56 42.605 56.8887 40 58.2509V34.6157C42.9809 32.8798 45 29.689 45 26C45 20.48 40.52 16 35 16C29.48 16 25 20.48 25 26C25 29.689 27.0191 32.8798 30 34.6157V67.3867C27.0191 69.1202 25 72.3086 25 76C25 81.5176 29.48 86 35 86C40.52 86 45 81.5176 45 76C45 73.3828 43.9697 71.0195 42.3242 69.2324C43.7793 67.4453 46.145 66 50 66C69.8438 66 70 46 70 46V44.6157C72.9785 42.8798 75 39.689 75 36C75 30.48 70.5176 26 65 26ZM35 21C37.7661 21 40 23.2339 40 26C40 28.7661 37.7661 31 35 31C32.2339 31 30 28.7661 30 26C30 23.2339 32.2339 21 35 21ZM35 81C32.2339 81 30 78.7637 30 76C30 73.2412 32.2339 71 35 71C37.7661 71 40 73.2412 40 76C40 78.7637 37.7661 81 35 81ZM65 41C62.2363 41 60 38.7661 60 36C60 33.2339 62.2363 31 65 31C67.7637 31 70 33.2339 70 36C70 38.7661 67.7637 41 65 41Z" fill="#2D2D2D"/>
<defs>
<linearGradient id="paint0_linear_16_1333" x1="50" y1="0" x2="50" y2="100" gradientUnits="userSpaceOnUse">
<stop stop-color="#8F8F8F"/>
<stop offset="1" stop-color="#A3A3A3"/>
</linearGradient>
</defs>
</svg>
