<svg width="100" height="100" viewBox="0 0 100 100" fill="none" xmlns="http://www.w3.org/2000/svg">
<g clip-path="url(#clip0_16_1330)">
<path d="M100 84.375C100 93.0043 93.0047 100 84.375 100H15.625C6.99551 100 0 93.0043 0 84.375V15.625C0 6.99551 6.9957 0 15.625 0H84.375C93.0047 0 100 6.99551 100 15.625V84.375Z" fill="url(#paint0_linear_16_1330)"/>
<path fill-rule="evenodd" clip-rule="evenodd" d="M49.9992 21.4271C33.8213 21.4271 20.7031 34.5435 20.7031 50.7248C20.7031 63.6674 29.0969 74.648 40.7396 78.5224C42.2045 78.7912 42.7383 77.8867 42.7383 77.1105C42.7383 76.415 42.7139 74.5726 42.6996 72.1277C34.5502 73.898 32.8307 68.2008 32.8307 68.2008C31.4975 64.8162 29.5779 63.9152 29.5779 63.9152C26.917 62.0972 29.7799 62.1342 29.7799 62.1342C32.7201 62.3416 34.2656 65.1533 34.2656 65.1533C36.8791 69.6304 41.1225 68.3377 42.7928 67.5877C43.058 65.6943 43.8168 64.4033 44.6527 63.6709C38.1471 62.9316 31.308 60.4183 31.308 49.1916C31.308 45.9933 32.4496 43.3779 34.3236 41.3302C34.0232 40.589 33.017 37.6103 34.61 33.5777C34.61 33.5777 37.0707 32.789 42.6682 36.581C45.0041 35.9312 47.5105 35.6045 50.0027 35.5939C52.4895 35.6045 54.9959 35.9312 57.3375 36.581C62.9295 32.789 65.3848 33.5777 65.3848 33.5777C66.9832 37.6103 65.9785 40.589 65.6764 41.3302C67.5541 43.3781 68.6867 45.9933 68.6867 49.1916C68.6867 60.4463 61.8369 62.9228 55.3105 63.6482C56.3643 64.5529 57.3004 66.3406 57.3004 69.0736C57.3004 72.9904 57.2635 76.1498 57.2635 77.1105C57.2635 77.8939 57.7924 78.8054 59.2797 78.5191C70.9105 74.6375 79.2969 63.6638 79.2969 50.7248C79.2969 34.5435 66.1787 21.4271 49.9992 21.4271Z" fill="#FAFAFA"/>
</g>
<defs>
<linearGradient id="paint0_linear_16_1330" x1="50" y1="0" x2="50" y2="100" gradientUnits="userSpaceOnUse">
<stop stop-color="#292929"/>
<stop offset="1" stop-color="#3D3D3D"/>
</linearGradient>
<clipPath id="clip0_16_1330">
<rect width="100" height="100" rx="16" fill="white"/>
</clipPath>
</defs>
</svg>
