<svg width="100" height="100" viewBox="0 0 100 100" fill="none" xmlns="http://www.w3.org/2000/svg">
<rect width="100" height="100" rx="16" fill="url(#paint0_linear_16_1300)"/>
<g clip-path="url(#clip0_16_1300)">
<path d="M29.0252 78.2119L49.2596 83.9219C49.6272 84.0255 50.2228 84.0262 50.5897 83.9233L70.9742 78.2105C71.3418 78.1075 71.6665 77.7157 71.701 77.3357L76.3869 24.6882C76.4209 24.3081 76.1382 24 75.757 24H24.2425C23.8612 24 23.5792 24.3081 23.6131 24.6882L28.2991 77.3357C28.3329 77.7157 28.6577 78.1083 29.0252 78.2119ZM34.0851 35.0448H65.9136C66.295 35.0448 66.5763 35.3529 66.5417 35.733L66.0663 40.9311C66.0317 41.3111 65.6938 41.6192 65.3125 41.6192H41.3739C40.9925 41.6192 40.7085 41.9273 40.7403 42.3081L41.1894 47.7314C41.2212 48.1114 41.5557 48.4203 41.9377 48.4203H64.7502C65.1316 48.4203 65.4128 48.7284 65.3782 49.1085L63.6258 68.169C63.5906 68.549 63.2646 68.9395 62.8962 69.0411L50.7411 72.3935C50.3734 72.495 50.0749 72.5856 50.0749 72.5953C50.0749 72.605 50.041 72.6139 49.9996 72.6139C49.9581 72.6139 49.6264 72.5317 49.2583 72.4301L36.9904 69.041C36.6228 68.9395 36.3002 68.5484 36.2698 68.1683L35.5525 59.1011C35.5228 58.7204 35.8075 58.4122 36.1889 58.4122H41.3815C41.7628 58.4122 42.1014 58.7203 42.1366 59.1004L42.4974 62.9842C42.5326 63.3642 42.8601 63.7533 43.2284 63.8526L49.2576 65.4832C49.6259 65.5827 50.2236 65.5835 50.5918 65.4839L56.6583 63.8519C57.0266 63.7532 57.3555 63.3649 57.3922 62.9848L58.0859 55.7954C58.1225 55.4154 57.8427 55.1079 57.4613 55.1079H35.8511C35.4698 55.1079 35.1332 54.7998 35.0993 54.4197L33.455 35.7337C33.4218 35.353 33.7037 35.0448 34.0851 35.0448Z" fill="white"/>
</g>
<defs>
<linearGradient id="paint0_linear_16_1300" x1="50" y1="0" x2="50" y2="100" gradientUnits="userSpaceOnUse">
<stop stop-color="#D74A24"/>
<stop offset="1" stop-color="#EF5E37"/>
</linearGradient>
<clipPath id="clip0_16_1300">
<rect width="60" height="60" fill="white" transform="translate(20 24)"/>
</clipPath>
</defs>
</svg>
