<svg width="100" height="100" viewBox="0 0 100 100" fill="none" xmlns="http://www.w3.org/2000/svg">
<path d="M85.4324 64.8398C85.4324 63.5597 85.0323 62.2796 84.3125 61.3197C85.8326 60.1997 86.8727 58.3598 86.8727 56.3598C86.8727 54.28 85.8326 52.52 84.3125 51.4C85.0323 50.3598 85.4324 49.16 85.4324 47.8798C85.4324 44.4401 82.6321 41.6398 79.1924 41.6398H63.1924C63.8325 39.7197 64.5524 36.92 64.8727 33.9596C65.1127 31.9596 65.0329 29.7994 64.6328 27.4797C64.0725 24.04 61.433 21.3998 57.9928 20.8397C55.2729 20.3598 52.7126 22.1198 52.1529 24.8397L50.8728 30.9998C50.1529 34.28 48.5531 37.16 46.1529 39.4797L38.8728 46.4396C38.1529 47.0796 37.1925 47.4797 36.2328 47.4797H33.3528C32.7127 45.16 30.6329 43.3999 28.0726 43.3999H18.3126C15.2725 43.3999 12.7925 45.8797 12.7925 48.92V71.96C12.7925 75.0001 15.2723 77.4801 18.3126 77.4801H28.1525C30.7128 77.4801 32.8723 75.7202 33.4326 73.32L37.8328 73.3195L38.393 74.1995C41.033 78.3596 45.513 80.9193 50.4729 80.9998H51.6727C56.6325 80.9998 63.353 80.68 69.5127 79.2398C70.1527 79.3999 70.7124 79.5595 71.4328 79.5595H78.0728C81.5125 79.5595 84.3128 76.7592 84.3128 73.3195C84.3128 71.9596 83.8329 70.6795 83.113 69.6392C84.473 68.5996 85.4328 66.8395 85.4328 64.8395L85.4324 64.8398ZM29.6724 71.9598C29.6724 72.8399 28.9526 73.5597 28.0726 73.5597L18.3126 73.5603C17.4325 73.5603 16.7127 72.8404 16.7127 71.9604V48.9204C16.7127 48.0404 17.4326 47.3205 18.3126 47.3205H28.1524C29.0325 47.3205 29.7523 48.0404 29.7523 48.9204L29.7528 71.9604L29.6724 71.9598ZM70.2324 45.4798H79.2726C80.5527 45.4798 81.5923 46.52 81.5923 47.7996C81.5923 49.0797 80.5521 50.1193 79.2726 50.1193L70.2324 50.1198C68.9523 50.1198 67.9127 49.0797 67.9127 47.8001C67.9122 46.52 68.9523 45.4798 70.2324 45.4798V45.4798ZM65.8323 76.0398C60.3121 76.9997 54.6326 77.1598 50.4723 77.08C46.8724 77.08 43.5923 75.1599 41.672 72.1202L40.552 70.2803C40.2323 69.72 39.5922 69.4003 38.8717 69.4003H33.5916L33.5922 51.4003H36.2322C38.2322 51.4003 40.072 50.6804 41.5123 49.2401L48.7924 42.2803C51.7523 39.48 53.7523 35.8004 54.6323 31.8004L55.9922 25.6403C56.1524 25.0002 56.7121 24.6001 57.4319 24.6804C59.1919 25.0002 60.5519 26.3607 60.8717 28.1201C61.1914 30.1201 61.2718 31.96 61.1116 33.5599C60.6317 38.2797 58.7115 42.7596 58.7115 42.84C58.4715 43.4003 58.5513 44.1201 58.8716 44.6799C59.2717 45.2401 59.8315 45.5599 60.4715 45.5599H64.3916L64.232 46.2803C61.5122 57.72 52.232 56.9203 51.8319 56.8406C50.7917 56.6805 49.8319 57.4807 49.6717 58.5209C49.5116 59.5611 50.3118 60.5209 51.352 60.681H52.3119C54.232 60.681 58.7917 60.2809 62.6316 56.8412C62.7917 58.681 63.7515 60.2809 65.1114 61.321C64.3916 62.3612 63.9915 63.561 63.9915 64.8412C63.9915 66.8412 64.9513 68.6012 66.3916 69.7212C65.6717 70.7614 65.1918 71.9612 65.1918 73.4015C65.1918 74.3602 65.4318 75.2402 65.8319 76.0405L65.8323 76.0398ZM78.0723 75.7195H71.4323C70.1522 75.7195 69.1126 74.6794 69.1126 73.3998C69.1126 72.1197 70.1527 71.0801 71.4323 71.0801H78.0723C79.3524 71.0801 80.392 72.1203 80.392 73.3998C80.3926 74.6799 79.3524 75.7195 78.0723 75.7195ZM79.2721 67.1598H70.2325C68.9524 67.1598 67.9128 66.1196 67.9128 64.8401C67.9128 63.56 68.9529 62.5204 70.2325 62.5204H79.2726C80.5528 62.5204 81.5923 63.5606 81.5923 64.8401C81.5923 66.1197 80.5522 67.1598 79.2721 67.1598ZM80.6325 58.68H68.7921C67.512 58.68 66.4724 57.6398 66.4724 56.3602C66.4724 55.0801 67.5126 54.0405 68.7921 54.0405H80.632C81.9121 54.0405 82.9517 55.0807 82.9517 56.3602C82.9522 57.6398 81.9121 58.68 80.6325 58.68V58.68Z" fill="url(#paint0_linear_16_1348)"/>
<path d="M26.3123 67.3199C26.3123 69.043 24.9155 70.4399 23.1923 70.4399C21.469 70.4399 20.0723 69.0431 20.0723 67.3199C20.0723 65.5972 21.469 64.1999 23.1923 64.1999C24.9155 64.1999 26.3123 65.5972 26.3123 67.3199Z" fill="url(#paint1_linear_16_1348)"/>
<path d="M57.9925 15.0797C59.0327 15.0797 59.9126 14.1997 59.9126 13.1596L59.9121 6.92014C59.9121 5.87997 59.032 5 57.9919 5C56.9518 5 56.0718 5.88003 56.0718 6.92014V13.1601C56.0723 14.2801 56.9524 15.0799 57.9925 15.0799L57.9925 15.0797Z" fill="url(#paint2_linear_16_1348)"/>
<path d="M46.7122 18.5999C47.1123 19 47.5923 19.1601 48.0722 19.1601C48.5521 19.1601 49.032 19 49.4321 18.5999C50.2323 17.88 50.2323 16.5999 49.4321 15.88L45.0319 11.4799C44.3121 10.6796 43.0319 10.6796 42.3121 11.4799C41.5119 12.1997 41.5119 13.4799 42.3121 14.1997L46.7122 18.5999Z" fill="url(#paint3_linear_16_1348)"/>
<path d="M37.8323 29.0798H44.0723C45.1124 29.0798 45.9924 28.1998 45.9924 27.1597C45.9924 26.1196 45.1124 25.2396 44.0723 25.2396L37.8323 25.2401C36.7921 25.2401 35.9121 26.1202 35.9121 27.1603C35.9121 28.1999 36.7123 29.08 37.8323 29.08V29.0798Z" fill="url(#paint4_linear_16_1348)"/>
<path d="M69.9922 27.1599C69.9922 28.2 70.8722 29.08 71.9123 29.08H78.1523C79.1925 29.08 80.0725 28.2 80.0725 27.1599C80.0725 26.1197 79.1925 25.2397 78.1523 25.2397H71.9123C70.8722 25.1599 69.9922 26.0399 69.9922 27.1599Z" fill="url(#paint5_linear_16_1348)"/>
<path d="M67.8324 19.2398C68.3124 19.2398 68.7923 19.0797 69.1924 18.6796L73.5925 14.2794C74.3124 13.4792 74.3124 12.2794 73.5925 11.5596C72.7923 10.8397 71.5925 10.8397 70.8727 11.5596L66.4725 15.9597C65.7526 16.7599 65.7526 17.9597 66.4725 18.6796C66.8726 18.9999 67.3525 19.2398 67.8324 19.2398V19.2398Z" fill="url(#paint6_linear_16_1348)"/>
<defs>
<linearGradient id="paint0_linear_16_1348" x1="49.8326" y1="20.7609" x2="49.8326" y2="80.9998" gradientUnits="userSpaceOnUse">
<stop stop-color="#C2271D"/>
<stop offset="1" stop-color="#DD4036"/>
</linearGradient>
<linearGradient id="paint1_linear_16_1348" x1="23.1923" y1="64.1999" x2="23.1923" y2="70.4399" gradientUnits="userSpaceOnUse">
<stop stop-color="#C2271D"/>
<stop offset="1" stop-color="#DD4036"/>
</linearGradient>
<linearGradient id="paint2_linear_16_1348" x1="57.9922" y1="5" x2="57.9922" y2="15.0799" gradientUnits="userSpaceOnUse">
<stop stop-color="#C2271D"/>
<stop offset="1" stop-color="#DD4036"/>
</linearGradient>
<linearGradient id="paint3_linear_16_1348" x1="45.8721" y1="10.8797" x2="45.8721" y2="19.1601" gradientUnits="userSpaceOnUse">
<stop stop-color="#C2271D"/>
<stop offset="1" stop-color="#DD4036"/>
</linearGradient>
<linearGradient id="paint4_linear_16_1348" x1="40.9523" y1="25.2396" x2="40.9523" y2="29.08" gradientUnits="userSpaceOnUse">
<stop stop-color="#C2271D"/>
<stop offset="1" stop-color="#DD4036"/>
</linearGradient>
<linearGradient id="paint5_linear_16_1348" x1="75.0323" y1="25.2347" x2="75.0323" y2="29.08" gradientUnits="userSpaceOnUse">
<stop stop-color="#C2271D"/>
<stop offset="1" stop-color="#DD4036"/>
</linearGradient>
<linearGradient id="paint6_linear_16_1348" x1="70.0325" y1="11.0197" x2="70.0325" y2="19.2398" gradientUnits="userSpaceOnUse">
<stop stop-color="#C2271D"/>
<stop offset="1" stop-color="#DD4036"/>
</linearGradient>
</defs>
</svg>
