<svg width="100" height="100" viewBox="0 0 100 100" fill="none" xmlns="http://www.w3.org/2000/svg">
<g clip-path="url(#clip0_16_1323)">
<path d="M50.5 114C91.0929 114 124 85.1224 124 49.5C124 13.8776 91.0929 -15 50.5 -15C9.90707 -15 -23 13.8776 -23 49.5C-23 85.1224 9.90707 114 50.5 114Z" fill="url(#paint0_linear_16_1323)"/>
<path d="M68.8626 25H31.2369C27.7606 25 25 27.7606 25 31.2369V68.7604C25 72.2367 27.7606 74.9972 31.2369 74.9972H68.7604C72.2367 74.9972 74.9972 72.2367 74.9972 68.7604V31.2369C75.0995 27.7606 72.3389 25 68.8626 25ZM46.7779 64.2616C46.7779 65.8975 45.4488 67.2267 43.8129 67.2267H34.5087C32.8728 67.2267 31.5436 65.8975 31.5436 64.2616V35.8378C31.5436 34.2019 32.8728 32.8728 34.5087 32.8728H43.8129C45.4488 32.8728 46.7779 34.2019 46.7779 35.8378V64.2616ZM68.5559 51.7879C68.5559 53.4238 67.2267 54.753 65.5908 54.753H56.2866C54.6507 54.753 53.3215 53.4238 53.3215 51.7879V35.8378C53.3215 34.2019 54.6507 32.8728 56.2866 32.8728H65.5908C67.2267 32.8728 68.5559 34.2019 68.5559 35.8378V51.7879Z" fill="#FAFAFA"/>
</g>
<defs>
<linearGradient id="paint0_linear_16_1323" x1="50.5" y1="-15" x2="50.5" y2="114" gradientUnits="userSpaceOnUse">
<stop stop-color="#0079BF"/>
<stop offset="1" stop-color="#0999ED"/>
</linearGradient>
<clipPath id="clip0_16_1323">
<rect width="100" height="100" rx="16" fill="white"/>
</clipPath>
</defs>
</svg>
