<svg width="31" height="31" viewBox="0 0 31 31" fill="none" xmlns="http://www.w3.org/2000/svg">
<path d="M15.34 0C6.87 0 0 6.87 0 15.3399C0 23.82 6.87 30.69 15.34 30.69C23.82 30.69 30.69 23.82 30.69 15.3399C30.69 6.87 23.82 0 15.34 0ZM10.99 23.03C10.99 23.2099 10.94 23.2599 10.76 23.2599H7.89C7.71 23.2599 7.65 23.2099 7.66 23.03V12.88C7.65 12.6999 7.72 12.6399 7.89 12.6499H10.76C10.95 12.6399 10.99 12.6999 10.99 12.88V23.03ZM9.33 11.28C8.27 11.29 7.4 10.41 7.4 9.35C7.4 8.35 8.18 7.43 9.32 7.42C10.4 7.42 11.26 8.23 11.26 9.35C11.26 10.4499 10.42 11.2699 9.33 11.28ZM22.99 23.2599H20.18C19.95 23.2599 19.94 23.25 19.94 23.0099V17.88C19.94 17.3899 19.93 16.91 19.79 16.44C19.57 15.71 19.09 15.36 18.33 15.34C17.79 15.3299 17.28 15.43 16.89 15.85C16.59 16.18 16.45 16.59 16.4 17.0199C16.3601 17.41 16.33 17.81 16.33 18.2099C16.32 19.82 16.32 21.43 16.33 23.04C16.33 23.2099 16.28 23.2599 16.1101 23.2599H13.22C13.05 23.2599 12.99 23.2099 12.99 23.04C13 19.65 13 16.2599 12.99 12.87C12.99 12.69 13.05 12.65 13.22 12.65H15.9801C16.16 12.65 16.21 12.71 16.21 12.88C16.2 13.25 16.21 13.63 16.21 14C16.7301 13.24 17.43 12.74 18.31 12.53C19.33 12.28 20.34 12.35 21.3 12.77C22.2301 13.17 22.7301 13.93 22.99 14.87C23.1701 15.48 23.25 16.11 23.26 16.75C23.27 18.82 23.28 20.9 23.2901 22.97C23.29 23.2599 23.29 23.2599 22.99 23.2599Z" fill="white"/>
</svg>
