<svg width="286" height="37" viewBox="0 0 286 37" fill="none" xmlns="http://www.w3.org/2000/svg">
<path d="M13.5998 4.6C17.1732 4.6 20.2532 5.73333 22.8398 8L19.5198 11.48C18.5332 10.7333 17.6132 10.2 16.7598 9.88C15.9332 9.53333 14.9732 9.36 13.8798 9.36C11.8265 9.36 10.1865 10.1733 8.95982 11.8C7.73316 13.4 7.11982 15.84 7.11982 19.12C7.11982 22.6667 7.58649 25.1867 8.51982 26.68C9.45316 28.1467 10.9065 28.88 12.8798 28.88C14.2665 28.88 15.5198 28.5733 16.6398 27.96V21.68H13.0398L12.3998 17.04H22.9998V30.76C21.5598 31.6933 19.9732 32.4133 18.2398 32.92C16.5065 33.4267 14.7732 33.68 13.0398 33.68C8.82649 33.68 5.65316 32.4533 3.51982 30C1.38649 27.52 0.319824 23.8933 0.319824 19.12C0.319824 16.08 0.893158 13.4667 2.03982 11.28C3.21316 9.09333 4.79982 7.44 6.79982 6.32C8.82649 5.17333 11.0932 4.6 13.5998 4.6Z" fill="#F0F0F0"/>
<path d="M44.1411 26.84C44.1411 27.64 44.2477 28.2267 44.4611 28.6C44.7011 28.9733 45.0744 29.2533 45.5811 29.44L44.2611 33.56C42.9544 33.4533 41.8877 33.1733 41.0611 32.72C40.2344 32.24 39.5944 31.4933 39.1411 30.48C37.7544 32.6133 35.6211 33.68 32.7411 33.68C30.6344 33.68 28.9544 33.0667 27.7011 31.84C26.4477 30.6133 25.8211 29.0133 25.8211 27.04C25.8211 24.72 26.6744 22.9467 28.3811 21.72C30.0877 20.4933 32.5544 19.88 35.7811 19.88H37.9411V18.96C37.9411 17.7067 37.6744 16.8533 37.1411 16.4C36.6077 15.92 35.6744 15.68 34.3411 15.68C33.6477 15.68 32.8077 15.7867 31.8211 16C30.8344 16.1867 29.8211 16.4533 28.7811 16.8L27.3411 12.64C28.6744 12.1333 30.0344 11.7467 31.4211 11.48C32.8344 11.2133 34.1411 11.08 35.3411 11.08C38.3811 11.08 40.6077 11.7067 42.0211 12.96C43.4344 14.2133 44.1411 16.0933 44.1411 18.6V26.84ZM34.5811 29.16C36.0211 29.16 37.1411 28.48 37.9411 27.12V23.36H36.3811C34.9411 23.36 33.8611 23.6133 33.1411 24.12C32.4477 24.6267 32.1011 25.4133 32.1011 26.48C32.1011 27.3333 32.3144 28 32.7411 28.48C33.1944 28.9333 33.8077 29.16 34.5811 29.16Z" fill="#F0F0F0"/>
<path d="M61.2151 11.08C63.7485 11.08 65.6951 12.08 67.0551 14.08C68.4151 16.0533 69.0951 18.8267 69.0951 22.4C69.0951 24.5867 68.7485 26.5333 68.0551 28.24C67.3885 29.9467 66.4151 31.28 65.1351 32.24C63.8818 33.2 62.3885 33.68 60.6551 33.68C59.5085 33.68 58.4551 33.44 57.4951 32.96C56.5618 32.48 55.7618 31.8133 55.0951 30.96L54.7751 33H49.1751V3.32L55.4951 2.64V13.92C56.1351 13.04 56.9485 12.3467 57.9351 11.84C58.9485 11.3333 60.0418 11.08 61.2151 11.08ZM58.8151 29.08C61.2951 29.08 62.5351 26.8533 62.5351 22.4C62.5351 19.8667 62.2418 18.12 61.6551 17.16C61.0685 16.2 60.2151 15.72 59.0951 15.72C57.6818 15.72 56.4818 16.5467 55.4951 18.2V27.04C55.8951 27.68 56.3751 28.1867 56.9351 28.56C57.5218 28.9067 58.1485 29.08 58.8151 29.08Z" fill="#F0F0F0"/>
<path d="M84.5623 11.16C85.3357 11.16 86.0423 11.2533 86.6823 11.44L85.6823 17.56C84.8823 17.3733 84.2423 17.28 83.7623 17.28C82.509 17.28 81.549 17.72 80.8823 18.6C80.2423 19.4533 79.7357 20.7467 79.3623 22.48V33H73.0423V11.76H78.5623L79.0823 15.88C79.5623 14.4133 80.2823 13.2667 81.2423 12.44C82.229 11.5867 83.3357 11.16 84.5623 11.16Z" fill="#F0F0F0"/>
<path d="M95.417 11.76V33H89.097V11.76H95.417ZM92.217 0.559998C93.3103 0.559998 94.2037 0.906665 94.897 1.6C95.617 2.26666 95.977 3.12 95.977 4.16C95.977 5.2 95.617 6.06666 94.897 6.76C94.2037 7.42666 93.3103 7.76 92.217 7.76C91.1237 7.76 90.2303 7.42666 89.537 6.76C88.8437 6.06666 88.497 5.2 88.497 4.16C88.497 3.12 88.8437 2.26666 89.537 1.6C90.2303 0.906665 91.1237 0.559998 92.217 0.559998Z" fill="#F0F0F0"/>
<path d="M118.906 21.96C118.906 22.84 118.866 23.6 118.786 24.24H105.626C105.839 26.0267 106.346 27.28 107.146 28C107.946 28.72 109.053 29.08 110.466 29.08C111.319 29.08 112.146 28.9333 112.946 28.64C113.746 28.32 114.613 27.84 115.546 27.2L118.146 30.72C115.666 32.6933 112.906 33.68 109.866 33.68C106.426 33.68 103.786 32.6667 101.946 30.64C100.106 28.6133 99.1861 25.8933 99.1861 22.48C99.1861 20.32 99.5727 18.3867 100.346 16.68C101.119 14.9467 102.253 13.5867 103.746 12.6C105.239 11.5867 107.026 11.08 109.106 11.08C112.173 11.08 114.573 12.04 116.306 13.96C118.039 15.88 118.906 18.5467 118.906 21.96ZM112.706 20.16C112.653 16.9067 111.506 15.28 109.266 15.28C108.173 15.28 107.319 15.68 106.706 16.48C106.119 17.28 105.759 18.6 105.626 20.44H112.706V20.16Z" fill="#F0F0F0"/>
<path d="M128.096 33.68C126.256 33.68 124.816 33.16 123.776 32.12C122.763 31.0533 122.256 29.5467 122.256 27.6V3.32L128.576 2.64V27.36C128.576 28.24 128.936 28.68 129.656 28.68C130.03 28.68 130.376 28.6133 130.696 28.48L131.936 32.96C130.79 33.44 129.51 33.68 128.096 33.68Z" fill="#F0F0F0"/>
<path d="M155.944 4.6C159.517 4.6 162.597 5.73333 165.184 8L161.864 11.48C160.877 10.7333 159.957 10.2 159.104 9.88C158.277 9.53333 157.317 9.36 156.224 9.36C154.17 9.36 152.53 10.1733 151.304 11.8C150.077 13.4 149.464 15.84 149.464 19.12C149.464 22.6667 149.93 25.1867 150.864 26.68C151.797 28.1467 153.25 28.88 155.224 28.88C156.61 28.88 157.864 28.5733 158.984 27.96V21.68H155.384L154.744 17.04H165.344V30.76C163.904 31.6933 162.317 32.4133 160.584 32.92C158.85 33.4267 157.117 33.68 155.384 33.68C151.17 33.68 147.997 32.4533 145.864 30C143.73 27.52 142.664 23.8933 142.664 19.12C142.664 16.08 143.237 13.4667 144.384 11.28C145.557 9.09333 147.144 7.44 149.144 6.32C151.17 5.17333 153.437 4.6 155.944 4.6Z" fill="#F0F0F0"/>
<path d="M178.805 11.08C182.058 11.08 184.605 12.08 186.445 14.08C188.285 16.0533 189.205 18.8267 189.205 22.4C189.205 24.6667 188.778 26.6533 187.925 28.36C187.098 30.04 185.898 31.3467 184.325 32.28C182.778 33.2133 180.938 33.68 178.805 33.68C175.578 33.68 173.031 32.6933 171.165 30.72C169.325 28.72 168.405 25.9333 168.405 22.36C168.405 20.0933 168.818 18.12 169.645 16.44C170.498 14.7333 171.698 13.4133 173.245 12.48C174.818 11.5467 176.671 11.08 178.805 11.08ZM178.805 15.72C177.525 15.72 176.565 16.2667 175.925 17.36C175.285 18.4267 174.965 20.0933 174.965 22.36C174.965 24.68 175.271 26.3733 175.885 27.44C176.525 28.5067 177.498 29.04 178.805 29.04C180.085 29.04 181.045 28.5067 181.685 27.44C182.325 26.3467 182.645 24.6667 182.645 22.4C182.645 20.08 182.325 18.3867 181.685 17.32C181.071 16.2533 180.111 15.72 178.805 15.72Z" fill="#F0F0F0"/>
<path d="M210.884 33H205.404L205.124 30.32C203.578 32.56 201.431 33.68 198.684 33.68C196.738 33.68 195.258 33.0933 194.244 31.92C193.258 30.7467 192.764 29.1067 192.764 27V11.76H199.084V26.2C199.084 27.24 199.244 27.9733 199.564 28.4C199.911 28.8 200.431 29 201.124 29C202.458 29 203.604 28.1733 204.564 26.52V11.76H210.884V33Z" fill="#F0F0F0"/>
<path d="M234.135 11.76L227.455 33H219.975L213.135 11.76H220.015L223.775 28.2L227.695 11.76H234.135Z" fill="#F0F0F0"/>
<path d="M254.57 21.96C254.57 22.84 254.53 23.6 254.45 24.24H241.29C241.503 26.0267 242.01 27.28 242.81 28C243.61 28.72 244.717 29.08 246.13 29.08C246.983 29.08 247.81 28.9333 248.61 28.64C249.41 28.32 250.277 27.84 251.21 27.2L253.81 30.72C251.33 32.6933 248.57 33.68 245.53 33.68C242.09 33.68 239.45 32.6667 237.61 30.64C235.77 28.6133 234.85 25.8933 234.85 22.48C234.85 20.32 235.237 18.3867 236.01 16.68C236.783 14.9467 237.917 13.5867 239.41 12.6C240.903 11.5867 242.69 11.08 244.77 11.08C247.837 11.08 250.237 12.04 251.97 13.96C253.703 15.88 254.57 18.5467 254.57 21.96ZM248.37 20.16C248.317 16.9067 247.17 15.28 244.93 15.28C243.837 15.28 242.983 15.68 242.37 16.48C241.783 17.28 241.423 18.6 241.29 20.44H248.37V20.16Z" fill="#F0F0F0"/>
<path d="M274.61 26.84C274.61 27.64 274.716 28.2267 274.93 28.6C275.17 28.9733 275.543 29.2533 276.05 29.44L274.73 33.56C273.423 33.4533 272.356 33.1733 271.53 32.72C270.703 32.24 270.063 31.4933 269.61 30.48C268.223 32.6133 266.09 33.68 263.21 33.68C261.103 33.68 259.423 33.0667 258.17 31.84C256.916 30.6133 256.29 29.0133 256.29 27.04C256.29 24.72 257.143 22.9467 258.85 21.72C260.556 20.4933 263.023 19.88 266.25 19.88H268.41V18.96C268.41 17.7067 268.143 16.8533 267.61 16.4C267.076 15.92 266.143 15.68 264.81 15.68C264.116 15.68 263.276 15.7867 262.29 16C261.303 16.1867 260.29 16.4533 259.25 16.8L257.81 12.64C259.143 12.1333 260.503 11.7467 261.89 11.48C263.303 11.2133 264.61 11.08 265.81 11.08C268.85 11.08 271.077 11.7067 272.49 12.96C273.903 14.2133 274.61 16.0933 274.61 18.6V26.84ZM265.05 29.16C266.49 29.16 267.61 28.48 268.41 27.12V23.36H266.85C265.41 23.36 264.33 23.6133 263.61 24.12C262.916 24.6267 262.57 25.4133 262.57 26.48C262.57 27.3333 262.783 28 263.21 28.48C263.663 28.9333 264.277 29.16 265.05 29.16Z" fill="#F0F0F0"/>
<path d="M286 33C286 35.2091 284.209 37 282 37C279.791 37 278 35.2091 278 33C278 30.7909 279.791 29 282 29C284.209 29 286 30.7909 286 33Z" fill="#C2271D"/>
</svg>
