<svg width="37" height="37" viewBox="0 0 37 37" fill="none" xmlns="http://www.w3.org/2000/svg">
<path d="M19.4172 10.5552C14.9946 10.5552 11.3977 14.1517 11.396 18.5724C11.3953 20.0874 11.8193 21.5628 12.6218 22.8394L12.8125 23.1427L12.0026 26.1014L15.0372 25.3053L15.3299 25.4791C16.5609 26.2096 17.9721 26.5961 19.4107 26.5967H19.414C23.8333 26.5967 27.43 22.9998 27.4318 18.5788C27.4326 16.4364 26.5994 14.422 25.0857 12.9064C23.5719 11.391 21.5587 10.5558 19.4172 10.5552ZM24.1333 22.0197C23.9325 22.5826 22.9695 23.0965 22.5064 23.1657C22.091 23.2278 21.5656 23.2537 20.9882 23.0702C20.6381 22.9591 20.1892 22.8108 19.6141 22.5625C17.1961 21.5184 15.617 19.0839 15.4965 18.9229C15.376 18.7621 14.5123 17.6159 14.5123 16.4295C14.5123 15.2432 15.135 14.66 15.3559 14.4186C15.5768 14.1774 15.8379 14.1171 15.9986 14.1171C16.1593 14.1171 16.3202 14.1186 16.4606 14.1255C16.6085 14.133 16.8072 14.0693 17.003 14.5393C17.2038 15.022 17.6858 16.2084 17.7461 16.3291C17.8064 16.4497 17.8466 16.5905 17.7662 16.7513C17.6859 16.9121 17.6457 17.0127 17.5252 17.1534C17.4047 17.2942 17.272 17.4677 17.1636 17.5757C17.043 17.6959 16.9173 17.8264 17.0579 18.0676C17.1986 18.309 17.6823 19.0982 18.3989 19.7374C19.3195 20.5585 20.0962 20.8131 20.3372 20.9337C20.5782 21.0545 20.7189 21.0342 20.8594 20.8734C21.0001 20.7126 21.462 20.1696 21.6227 19.9283C21.7834 19.6871 21.9441 19.7273 22.165 19.8077C22.3859 19.8882 23.571 20.4712 23.812 20.5918C24.053 20.7125 24.2137 20.7729 24.274 20.8734C24.3342 20.9739 24.3342 21.4565 24.1333 22.0197Z" fill="white"/>
<path d="M19.0613 2.85425C10.1858 2.85425 2.99023 10.0485 2.99023 18.924C2.99023 27.7996 10.1858 34.9951 19.0613 34.9951C27.9362 34.9951 35.1318 27.7996 35.1318 18.924C35.1318 10.0485 27.9362 2.85425 19.0613 2.85425ZM19.414 28.226C19.4137 28.226 19.4142 28.226 19.414 28.226H19.41C17.7955 28.2254 16.2091 27.8203 14.8002 27.0519L9.68632 28.3933L11.0549 23.3945C10.2107 21.9316 9.76653 20.2721 9.76724 18.5719C9.76933 13.2532 14.0969 8.92596 19.4139 8.92596C21.9945 8.927 24.4166 9.9316 26.2378 11.755C28.0591 13.5783 29.0616 16.0019 29.0606 18.5796C29.0584 23.8983 24.7306 28.226 19.414 28.226Z" fill="white"/>
</svg>
