<svg width="39" height="39" viewBox="0 0 39 39" fill="none" xmlns="http://www.w3.org/2000/svg">
<path d="M20.4665 11.1257C15.8048 11.1257 12.0135 14.9167 12.0117 19.5763C12.011 21.1732 12.4579 22.7284 13.3038 24.0739L13.5048 24.3937L12.6511 27.5122L15.8497 26.6732L16.1582 26.8563C17.4558 27.6263 18.9432 28.0338 20.4597 28.0344H20.4631C25.1213 28.0344 28.9125 24.2431 28.9143 19.583C28.9152 17.3249 28.0369 15.2015 26.4414 13.6041C24.8458 12.0067 22.7238 11.1264 20.4665 11.1257ZM25.4375 23.2099C25.2259 23.8033 24.2108 24.345 23.7226 24.4179C23.2849 24.4834 22.731 24.5106 22.1224 24.3172C21.7534 24.2002 21.2802 24.0438 20.674 23.7821C18.1254 22.6815 16.4609 20.1154 16.3339 19.9458C16.2069 19.7763 15.2964 18.5682 15.2964 17.3175C15.2964 16.0671 15.9528 15.4524 16.1857 15.198C16.4185 14.9438 16.6938 14.8801 16.8631 14.8801C17.0325 14.8801 17.2021 14.8817 17.35 14.8891C17.506 14.897 17.7155 14.8299 17.9218 15.3252C18.1334 15.834 18.6415 17.0846 18.7051 17.2117C18.7687 17.3389 18.811 17.4873 18.7263 17.6568C18.6416 17.8263 18.5993 17.9323 18.4722 18.0806C18.3452 18.229 18.2054 18.4119 18.0911 18.5257C17.9639 18.6524 17.8315 18.79 17.9797 19.0442C18.1279 19.2987 18.6378 20.1306 19.3931 20.8043C20.3635 21.6698 21.1822 21.9381 21.4362 22.0653C21.6903 22.1926 21.8385 22.1712 21.9867 22.0017C22.1349 21.8322 22.6218 21.2598 22.7912 21.0055C22.9606 20.7513 23.1299 20.7936 23.3628 20.8784C23.5957 20.9633 24.8448 21.5778 25.0989 21.7049C25.3529 21.8321 25.5223 21.8957 25.5858 22.0017C25.6493 22.1076 25.6493 22.6163 25.4375 23.2099Z" fill="white"/>
<path d="M20.0917 3.00854C10.7363 3.00854 3.15186 10.5917 3.15186 19.947C3.15186 29.3023 10.7363 36.8868 20.0917 36.8868C29.4463 36.8868 37.0308 29.3023 37.0308 19.947C37.0308 10.5917 29.4463 3.00854 20.0917 3.00854ZM20.4634 29.7518C20.4631 29.7518 20.4636 29.7518 20.4634 29.7518H20.4592C18.7575 29.7511 17.0852 29.3242 15.6002 28.5141L10.2099 29.9281L11.6524 24.6591C10.7626 23.1171 10.2944 21.3679 10.2952 19.5758C10.2974 13.9696 14.8589 9.40845 20.4633 9.40845C23.1833 9.40955 25.7364 10.4685 27.6561 12.3904C29.5758 14.3123 30.6325 16.8669 30.6315 19.5839C30.6291 25.1902 26.0673 29.7518 20.4634 29.7518Z" fill="white"/>
</svg>
